<?xml version="1.0" encoding="UTF-8"?>
<svg version="1.1" xmlns="http://www.w3.org/2000/svg" width="500" height="500">
<path d="M0 0 C165 0 330 0 500 0 C500 165 500 330 500 500 C335 500 170 500 0 500 C0 335 0 170 0 0 Z " fill="#FEFEFE" transform="translate(0,0)"/>
<path d="M0 0 C1.14621826 0.0100708 2.29243652 0.0201416 3.47338867 0.03051758 C6.69105549 0.06777549 9.90775597 0.12421699 13.125 0.1875 C13.8557373 0.19620117 14.58647461 0.20490234 15.33935547 0.21386719 C48.31343851 0.72022059 81.59844491 17.12351739 106.125 38.1875 C106.9809375 38.9196875 107.836875 39.651875 108.71875 40.40625 C131.53114 60.40229555 147.80918299 87.78748772 155.125 117.1875 C155.40085937 118.25484375 155.67671875 119.3221875 155.9609375 120.421875 C162.4296637 146.68106058 161.58771273 173.24219651 154.125 199.1875 C153.9295459 199.88568848 153.7340918 200.58387695 153.53271484 201.30322266 C148.23410935 219.86728051 139.17863401 237.1148833 127.125 252.1875 C126.65980957 252.77080078 126.19461914 253.35410156 125.71533203 253.95507812 C99.5928317 286.31800202 62.06375463 306.61701081 20.8359375 311.75390625 C-21.05431974 316.16810047 -61.71697317 303.79555232 -94.31640625 277.42578125 C-109.66246648 264.79472536 -122.12809568 250.55105738 -131.875 233.1875 C-132.20064941 232.60871094 -132.52629883 232.02992188 -132.86181641 231.43359375 C-150.85140591 198.94532484 -158.00408684 158.51979319 -148.875 122.1875 C-148.70871094 121.47803223 -148.54242188 120.76856445 -148.37109375 120.03759766 C-141.57832789 91.22494915 -126.30405243 66.31697708 -105.875 45.1875 C-105.26140625 44.52234375 -104.6478125 43.8571875 -104.015625 43.171875 C-78.47070925 16.1094395 -36.83860579 -0.45135293 0 0 Z " fill="#FEFDFD" transform="translate(245.875,93.8125)"/>
<path d="M0 0 C1.14621826 0.0100708 2.29243652 0.0201416 3.47338867 0.03051758 C6.69105549 0.06777549 9.90775597 0.12421699 13.125 0.1875 C13.8557373 0.19620117 14.58647461 0.20490234 15.33935547 0.21386719 C48.31343851 0.72022059 81.59844491 17.12351739 106.125 38.1875 C106.9809375 38.9196875 107.836875 39.651875 108.71875 40.40625 C131.53114 60.40229555 147.80918299 87.78748772 155.125 117.1875 C155.40085937 118.25484375 155.67671875 119.3221875 155.9609375 120.421875 C162.4296637 146.68106058 161.58771273 173.24219651 154.125 199.1875 C153.9295459 199.88568848 153.7340918 200.58387695 153.53271484 201.30322266 C148.23410935 219.86728051 139.17863401 237.1148833 127.125 252.1875 C126.65980957 252.77080078 126.19461914 253.35410156 125.71533203 253.95507812 C99.5928317 286.31800202 62.06375463 306.61701081 20.8359375 311.75390625 C-21.05431974 316.16810047 -61.71697317 303.79555232 -94.31640625 277.42578125 C-109.66246648 264.79472536 -122.12809568 250.55105738 -131.875 233.1875 C-132.20064941 232.60871094 -132.52629883 232.02992188 -132.86181641 231.43359375 C-150.85140591 198.94532484 -158.00408684 158.51979319 -148.875 122.1875 C-148.70871094 121.47803223 -148.54242188 120.76856445 -148.37109375 120.03759766 C-141.57832789 91.22494915 -126.30405243 66.31697708 -105.875 45.1875 C-105.26140625 44.52234375 -104.6478125 43.8571875 -104.015625 43.171875 C-78.47070925 16.1094395 -36.83860579 -0.45135293 0 0 Z M-90.875 46.1875 C-91.865 47.02410156 -92.855 47.86070312 -93.875 48.72265625 C-100.29593579 54.34989303 -105.70362082 60.40684548 -110.875 67.1875 C-111.65359375 68.15429688 -112.4321875 69.12109375 -113.234375 70.1171875 C-118.97163289 77.46441954 -123.19364726 85.36906485 -127.25 93.75 C-127.74991455 94.77818848 -128.2498291 95.80637695 -128.76489258 96.86572266 C-132.17985256 104.12921513 -134.70665831 111.4651367 -136.875 119.1875 C-137.17954102 120.25605225 -137.17954102 120.25605225 -137.49023438 121.34619141 C-140.42787964 132.31733978 -141.28488609 143.23378941 -141.25 154.5625 C-141.24912384 155.26137329 -141.24824768 155.96024658 -141.24734497 156.68029785 C-141.08591541 195.93951979 -125.50088842 232.24945464 -97.875 260.1875 C-95.29451548 262.63565198 -92.62133168 264.92825356 -89.875 267.1875 C-89.15054688 267.81140625 -88.42609375 268.4353125 -87.6796875 269.078125 C-58.13517575 293.84481141 -20.36167683 303.73136003 17.609375 300.79296875 C38.35391581 298.86546941 58.07112094 292.62081947 76.125 282.1875 C76.7245752 281.84106445 77.32415039 281.49462891 77.94189453 281.13769531 C87.11419008 275.734667 95.27935984 269.36350622 103.125 262.1875 C103.93517578 261.45321777 103.93517578 261.45321777 104.76171875 260.70410156 C130.31674685 237.25842555 146.94398964 202.66162246 148.9609375 168 C150.67245648 128.22755885 139.86389769 89.56915992 112.59326172 59.77294922 C112.10873535 59.24975098 111.62420898 58.72655273 111.125 58.1875 C110.62629395 57.64496582 110.12758789 57.10243164 109.61376953 56.54345703 C89.82108511 35.25179998 64.26940662 21.14454433 36.125 14.1875 C35.26777344 13.97351563 34.41054688 13.75953125 33.52734375 13.5390625 C-10.44861835 3.67128564 -57.04240966 17.39050608 -90.875 46.1875 Z " fill="#F38E36" transform="translate(245.875,93.8125)"/>
<path d="M0 0 C32.34 0 64.68 0 98 0 C98 6.28644951 97.84304803 11.20704141 96.375 17.125 C96.19606201 17.85436768 96.01712402 18.58373535 95.83276367 19.33520508 C91.22652614 37.27641285 82.85724833 51.69859219 70 65 C69.15308594 65.99193359 69.15308594 65.99193359 68.2890625 67.00390625 C54.6690835 82.25705015 32.02634457 91.30970303 12 93 C3.04250753 93.43679302 -6.17378729 93.79124448 -15 92 C-10 87 -10 87 -7.625 84.75 C6.40269809 70.05431629 11.52823049 53.55322825 11.203125 33.4921875 C10.76967332 20.80051092 5.56190124 11.81904013 0 0 Z " fill="#F38C33" transform="translate(238,204)"/>
<path d="M0 0 C9.12059226 8.47297624 14.61934762 22.93439542 15.2734375 35.1875 C15.73384679 50.56005462 12.45135401 62.23992265 2 74 C-11.99882182 87.58494361 -30.59311216 95.67556874 -50 96 C-49.86722656 95.35933594 -49.73445312 94.71867187 -49.59765625 94.05859375 C-49.42105469 93.19363281 -49.24445313 92.32867187 -49.0625 91.4375 C-48.88847656 90.59058594 -48.71445313 89.74367188 -48.53515625 88.87109375 C-47.5159149 83.40290109 -46.87168887 77.98268999 -46.5703125 72.4296875 C-46.49683594 71.2025 -46.42335937 69.9753125 -46.34765625 68.7109375 C-46.20060037 66.17744842 -46.05985249 63.64358439 -45.92578125 61.109375 C-45.08503787 47.45798255 -43.57901293 35.13840569 -33.4375 25.3125 C-23.86928232 17.50825541 -12.87456964 16.0096398 -1 15 C-0.21273804 36.16160159 -0.4891185 54.43264406 -15.63671875 70.859375 C-18.04654073 73.29326083 -20.49348802 75.66635092 -23 78 C-23.33 78.33 -23.66 78.66 -24 79 C-22.26972464 77.75153512 -20.54083043 76.50115598 -18.8125 75.25 C-17.84957031 74.55390625 -16.88664062 73.8578125 -15.89453125 73.140625 C-4.57485216 64.76925639 3.86213363 53.25956869 6 39 C6.79956039 27.50468094 6.11981398 15.23962795 0.8671875 4.734375 C0 3 0 3 0 0 Z " fill="#289A5E" transform="translate(228,207)"/>
<path d="M0 0 C13.27301276 3.47357568 24.6862177 8.8272062 31.9921875 20.91015625 C36.06457197 29.35482947 36.94246967 39.55558556 34.22216797 48.58056641 C32.92312446 52.07609169 31.50250525 55.48837574 29.93408203 58.87158203 C27.30594838 64.61567818 26.25894266 69.6862951 26 76 C23.65771144 73.74440368 22.25986127 71.86235865 20.9375 68.875 C20.61652344 68.17117187 20.29554688 67.46734375 19.96484375 66.7421875 C17.62101025 60.08076596 16.67180329 53.25920489 16.1484375 46.24609375 C16.08467926 45.45977066 16.02092102 44.67344757 15.95523071 43.86329651 C15.75590777 41.38845979 15.56529653 38.91304539 15.375 36.4375 C15.24016284 34.74409438 15.10475116 33.05073441 14.96875 31.35742188 C14.63920086 27.23877812 14.31745454 23.11959289 14 19 C13.9500571 23.92552258 13.9140271 28.85089336 13.89013672 33.77661133 C13.88016297 35.44753593 13.8665791 37.11844347 13.84912109 38.78930664 C13.75476249 48.06142735 13.75444986 56.93045844 16 66 C10.44630016 62.94787974 6.95033332 58.87400207 3 54 C2.53722656 53.45472656 2.07445312 52.90945312 1.59765625 52.34765625 C-2.45217002 46.68366434 -1.68983358 39.61311614 -1 33 C-0.30186274 29.52510488 0.6252427 26.11883488 1.56079102 22.70166016 C3.83989418 14.23405086 4.07817884 7.81650944 0 0 Z " fill="#036A3A" transform="translate(209,129)"/>
<path d="M0 0 C6.76296354 2.08067333 13.13878613 4.73249736 19.5625 7.6875 C20.47580078 8.10322266 21.38910156 8.51894531 22.33007812 8.94726562 C24.55525752 9.96082902 26.77847781 10.97845216 29 12 C29 16 29 16 26.4375 18.6875 C23.31550935 21.42029941 20.03237663 21.56367863 16 22 C15.81824219 23.68802734 15.81824219 23.68802734 15.6328125 25.41015625 C15.46363525 26.96094771 15.29435892 28.51172837 15.125 30.0625 C15.04636719 30.79533203 14.96773438 31.52816406 14.88671875 32.28320312 C14.05346766 39.87860729 13.01093601 47.41797994 12 55 C-1.53 55 -15.06 55 -29 55 C-25.20588029 49.94117372 -21.46183032 45.10462205 -17.3125 40.375 C-13.04011641 35.4495347 -8.89737755 30.4443828 -4.875 25.3125 C-4.41391846 24.72452637 -3.95283691 24.13655273 -3.4777832 23.53076172 C-1.5601681 21.06747206 0.26745683 18.59881476 2 16 C1.505 15.154375 1.01 14.30875 0.5 13.4375 C-1.57522753 8.68177024 -1.63547495 4.90642484 0 0 Z " fill="#2A9B5F" transform="translate(310,141)"/>
<path d="M0 0 C0.33 0.66 0.66 1.32 1 2 C5.66047493 4.70608222 10.78066735 4.42943876 16 4 C17.11375 3.67 18.2275 3.34 19.375 3 C25.64501039 1.27034196 31.81008493 0.52504611 37.85546875 3.3203125 C43.15184669 6.80950683 46.40702668 10.22474124 49 16 C48.46117187 15.86722656 47.92234375 15.73445312 47.3671875 15.59765625 C37.05230231 13.38270441 26.50803723 13.34206394 16 13 C16.63389648 13.06993164 17.26779297 13.13986328 17.92089844 13.21191406 C47.41318601 16.54358912 47.41318601 16.54358912 57 24 C55 25 55 25 51.86328125 24.90625 C47.59857365 25.00974139 44.14980832 26.08454716 40.1875 27.5 C31.81054323 30.26152836 25.20503939 31.67368261 16.8125 28.0625 C7.13902822 22.61927685 3.09237857 13.28892778 0 3 C0 2.01 0 1.02 0 0 Z " fill="#89BE46" transform="translate(165,175)"/>
<path d="M0 0 C6.76296354 2.08067333 13.13878613 4.73249736 19.5625 7.6875 C20.93245117 8.31108398 20.93245117 8.31108398 22.33007812 8.94726562 C24.55525752 9.96082902 26.77847781 10.97845216 29 12 C29 13.32 29 14.64 29 16 C24.00309036 20.67102423 21.13014559 22.38775177 14.4453125 22.26953125 C9.49886335 21.72431561 5.71880579 19.92322687 2.390625 16.19921875 C-0.65675869 11.79078447 -1.64072961 8.44620166 -1 3 C-0.67 2.01 -0.34 1.02 0 0 Z " fill="#F28E35" transform="translate(310,141)"/>
<path d="M0 0 C3.0625 1.9375 3.0625 1.9375 5 5 C5.91455665 9.97290177 5.7861114 13.71601805 3.125 18.0625 C-0.43270598 21.30629075 -3.07412967 21.33052231 -7.73828125 21.29296875 C-11.0542278 20.86344199 -12.74987627 19.39075646 -15 17 C-16.85726616 13.28546768 -16.58501089 9.04420575 -16 5 C-11.21361412 -1.17191863 -7.28910842 -1.77200739 0 0 Z " fill="#036A3A" transform="translate(191,147)"/>
<path d="M0 0 C-0.54645294 6.55743525 -1.93607573 12.3541439 -7.08984375 16.8046875 C-11.03254895 19.54686849 -14.21065635 21.26512716 -19 22 C-18.60167969 21.55269531 -18.20335937 21.10539062 -17.79296875 20.64453125 C-14.82015875 17.25220061 -12.1717806 13.98159776 -10 10 C-10.78375 10.66 -11.5675 11.32 -12.375 12 C-15 14 -15 14 -17 14 C-17.268125 14.598125 -17.53625 15.19625 -17.8125 15.8125 C-18.99086308 17.98316883 -20.23060981 19.30817212 -22 21 C-20.42822308 14.14760414 -18.5903602 8.54216766 -13 4 C-8.59000941 1.41984925 -5.14510755 0 0 0 Z " fill="#53B24C" transform="translate(282,180)"/>
<path d="M0 0 C6.47886029 -0.36672794 6.47886029 -0.36672794 8.6875 1.1875 C10.40109869 3.55389819 10.49939544 5.29068971 10.6875 8.1875 C10.78611328 9.53908203 10.78611328 9.53908203 10.88671875 10.91796875 C10.92410156 11.60503906 10.96148437 12.29210937 11 13 C9.63875 12.9690625 9.63875 12.9690625 8.25 12.9375 C5.14181947 12.85845564 5.14181947 12.85845564 2.8125 13.625 C2.214375 13.74875 1.61625 13.8725 1 14 C0.01 13.34 -0.98 12.68 -2 12 C-2.1875 9.375 -2.1875 9.375 -2 7 C1.465 6.505 1.465 6.505 5 6 C5 4.35 5 2.7 5 1 C4.01 1 3.02 1 2 1 C2 2.32 2 3.64 2 5 C1.01 4.67 0.02 4.34 -1 4 C-0.67 2.68 -0.34 1.36 0 0 Z " fill="#F49644" transform="translate(313,328)"/>
<path d="M0 0 C1.47906892 -0.02689216 2.95827483 -0.04634621 4.4375 -0.0625 C5.26121094 -0.07410156 6.08492187 -0.08570313 6.93359375 -0.09765625 C9 0 9 0 10 1 C10.07226502 2.85287502 10.0838122 4.70833878 10.0625 6.5625 C10.05347656 7.57441406 10.04445312 8.58632813 10.03515625 9.62890625 C10.02355469 10.41136719 10.01195312 11.19382812 10 12 C10.99 11.67 11.98 11.34 13 11 C13 7.37 13 3.74 13 0 C14.98 0 16.96 0 19 0 C18.67 4.29 18.34 8.58 18 13 C16.576875 13.226875 15.15375 13.45375 13.6875 13.6875 C12.88699219 13.81511719 12.08648437 13.94273437 11.26171875 14.07421875 C9 14 9 14 7.21875 12.84375 C5.59004671 10.37981426 5.69844699 8.73986054 5.8125 5.8125 C5.85310547 4.46091797 5.85310547 4.46091797 5.89453125 3.08203125 C5.92933594 2.39496094 5.96414062 1.70789063 6 1 C2.60085025 2.13304992 1.94745549 3.12518475 0 6 C0 4.02 0 2.04 0 0 Z " fill="#F5A056" transform="translate(192,328)"/>
<path d="M0 0 C3.4398759 0 5.43271292 0.46441758 7.95703125 2.84765625 C9.69798248 4.85808262 11.37770589 6.89293753 13 9 C13 6.03 13 3.06 13 0 C14.32 0.33 15.64 0.66 17 1 C16.34 1 15.68 1 15 1 C15 6.61 15 12.22 15 18 C10.84641746 14.56530675 7.21124658 11.36729534 4 7 C4 10.63 4 14.26 4 18 C2.68 17.67 1.36 17.34 0 17 C0.66 17 1.32 17 2 17 C2 11.72 2 6.44 2 1 C1.34 0.67 0.68 0.34 0 0 Z " fill="#F49B4D" transform="translate(226,323)"/>
<path d="M0 0 C-0.43483564 5.43544554 -1.53228 8.76167555 -5 13 C-7.625 14.9375 -7.625 14.9375 -10 16 C-10.66 15.67 -11.32 15.34 -12 15 C-10.35 12.69 -8.7 10.38 -7 8 C-11.82921763 11.10003562 -11.82921763 11.10003562 -16 15 C-15.00229522 8.88905822 -12.68767406 6.31346286 -7.97265625 2.3828125 C-5.24445782 0.47037241 -3.32784448 0 0 0 Z " fill="#5CB448" transform="translate(306,306)"/>
<path d="M0 0 C2.475 0.495 2.475 0.495 5 1 C5 4.63 5 8.26 5 12 C5.99 11.67 6.98 11.34 8 11 C8 7.37 8 3.74 8 0 C9.98 0 11.96 0 14 0 C13.67 4.29 13.34 8.58 13 13 C11.576875 13.226875 10.15375 13.45375 8.6875 13.6875 C7.88699219 13.81511719 7.08648437 13.94273437 6.26171875 14.07421875 C4 14 4 14 2.25 12.875 C0.55993172 10.33989758 0.49038328 8.33651573 0.3125 5.3125 C0.24675781 4.31863281 0.18101562 3.32476562 0.11328125 2.30078125 C0.07589844 1.54152344 0.03851563 0.78226562 0 0 Z " fill="#F49B4E" transform="translate(245,328)"/>
<path d="M0 0 C5.00833254 0.47698405 8.10624603 1.79846896 12 5 C13.9375 8.125 13.9375 8.125 15 11 C14.67 11.66 14.34 12.32 14 13 C11.69 11.02 9.38 9.04 7 7 C7.7425 7.928125 7.7425 7.928125 8.5 8.875 C10 11 10 11 10 13 C10.99 13.33 11.98 13.66 13 14 C12.01 14.495 12.01 14.495 11 15 C6.83907077 12.44670252 3.65778668 10.13433484 1 6 C0.25 2.6875 0.25 2.6875 0 0 Z " fill="#4FB04E" transform="translate(243,187)"/>
<path d="M0 0 C0.66 0 1.32 0 2 0 C3.0067004 2.26807204 4.00551766 4.53907754 5 6.8125 C5.28617188 7.45509766 5.57234375 8.09769531 5.8671875 8.75976562 C7.13711041 11.67756469 8 13.78265714 8 17 C8.66 17.33 9.32 17.66 10 18 C7.6875 18.3125 7.6875 18.3125 5 18 C2.65115471 14.95520055 1.33340936 11.58994826 0 8 C-0.99 8.66 -1.98 9.32 -3 10 C-2.39009109 6.44219804 -1.4216319 3.3171411 0 0 Z " fill="#F49848" transform="translate(173,323)"/>
<path d="M0 0 C12.70542463 -0.23336494 24.74760587 0.43199512 37 4 C36.34 4.33 35.68 4.66 35 5 C35 5.66 35 6.32 35 7 C34.11441406 6.80664062 33.22882813 6.61328125 32.31640625 6.4140625 C24.41086012 4.7523348 16.59758098 3.47587961 8.54907227 2.73486328 C4.9595678 2.37408773 3.06464405 2.04309603 0 0 Z " fill="#F0F6E7" transform="translate(178,187)"/>
<path d="M0 0 C-0.639375 0.309375 -1.27875 0.61875 -1.9375 0.9375 C-3.93610821 1.8345163 -3.93610821 1.8345163 -5 3 C-5.07271741 5.35313555 -5.08370868 7.70833668 -5.0625 10.0625 C-5.05347656 11.35285156 -5.04445313 12.64320313 -5.03515625 13.97265625 C-5.02355469 14.97167969 -5.01195312 15.97070312 -5 17 C-4.34 17.33 -3.68 17.66 -3 18 C-6.30133235 17.7323244 -7.62503298 17.4396165 -9.8125 14.875 C-11.31495373 11.23748045 -11.55764485 8.90351394 -11 5 C-7.74180693 0.49602723 -5.51527888 -0.6413115 0 0 Z " fill="#F49B4C" transform="translate(305,323)"/>
<path d="M0 0 C1.32 0 2.64 0 4 0 C4 0.99 4 1.98 4 3 C4.99 3.33 5.98 3.66 7 4 C6.01 4 5.02 4 4 4 C4 7.96 4 11.92 4 16 C2.68 15.67 1.36 15.34 0 15 C-1.18495796 12.63008409 -1.3899818 10.69379733 -1.6875 8.0625 C-1.84798828 6.74958984 -1.84798828 6.74958984 -2.01171875 5.41015625 C-2 3 -2 3 0 0 Z " fill="#F5A157" transform="translate(263,325)"/>
<path d="M0 0 C1.875 1.25 1.875 1.25 3 3 C3 4.32 3 5.64 3 7 C1.35 7 -0.3 7 -2 7 C-2 5.02 -2 3.04 -2 1 C-2.99 1.495 -2.99 1.495 -4 2 C-4.0270043 3.45823212 -4.04639787 4.91660675 -4.0625 6.375 C-4.07410156 7.18710937 -4.08570313 7.99921875 -4.09765625 8.8359375 C-4.14466334 11.04937142 -4.14466334 11.04937142 -3 13 C-7.875 12.125 -7.875 12.125 -9 11 C-9.46302251 3.82315113 -9.46302251 3.82315113 -7.875 1 C-5.10184376 -0.47901666 -3.08815875 -0.38601984 0 0 Z " fill="#F49645" transform="translate(348,328)"/>
<path d="M0 0 C2.475 0.495 2.475 0.495 5 1 C7.72502965 0.62277985 7.72502965 0.62277985 10 0 C10.33 1.32 10.66 2.64 11 4 C10.01 4.33 9.02 4.66 8 5 C7.67 4.01 7.34 3.02 7 2 C5.74050951 3.03406673 5.74050951 3.03406673 5.90234375 5.28515625 C5.91394531 6.20167969 5.92554688 7.11820312 5.9375 8.0625 C5.95103516 9.44115234 5.95103516 9.44115234 5.96484375 10.84765625 C5.97644531 11.55792969 5.98804688 12.26820313 6 13 C4.02 13 2.04 13 0 13 C0 8.71 0 4.42 0 0 Z " fill="#F3903A" transform="translate(273,328)"/>
<path d="M0 0 C2.25 -0.375 2.25 -0.375 5 0 C7.1875 3 7.1875 3 9 6 C9.66 6 10.32 6 11 6 C10.39009109 9.55780196 9.4216319 12.6828589 8 16 C7.67 16 7.34 16 7 16 C6.82984375 15.43152344 6.6596875 14.86304688 6.484375 14.27734375 C4.84932263 9.0677886 2.86690828 4.64636859 0 0 Z " fill="#F49C4F" transform="translate(181,328)"/>
<path d="M0 0 C0.33 0 0.66 0 1 0 C1.05422947 1.4370809 1.09289723 2.87475462 1.125 4.3125 C1.14820313 5.11300781 1.17140625 5.91351563 1.1953125 6.73828125 C1 9 1 9 -1 12 C-5.875 11.125 -5.875 11.125 -7 10 C-7.04063832 8.33382885 -7.042721 6.66611905 -7 5 C-3.535 4.505 -3.535 4.505 0 4 C0 2.68 0 1.36 0 0 Z " fill="#FCE2CC" transform="translate(318,330)"/>
<path d="M0 0 C4.99275057 1.27721526 7.57611908 3.17330957 11 7 C10.67 7.99 10.34 8.98 10 10 C8.68 9.01 7.36 8.02 6 7 C6.66 8.32 7.32 9.64 8 11 C5.12160009 9.7096828 2.90945214 8.54593619 1 6 C0.3125 2.8125 0.3125 2.8125 0 0 Z " fill="#5AB450" transform="translate(276,311)"/>
<path d="M0 0 C4 1 4 1 5 2 C5.23363881 3.84891946 5.41303635 5.70488031 5.5625 7.5625 C5.68818359 9.08037109 5.68818359 9.08037109 5.81640625 10.62890625 C5.87699219 11.41136719 5.93757813 12.19382812 6 13 C4.02 13 2.04 13 0 13 C0 8.71 0 4.42 0 0 Z " fill="#F49645" transform="translate(326,328)"/>
<path d="M0 0 C1.32 0 2.64 0 4 0 C4.33 3.96 4.66 7.92 5 12 C3.02 12 1.04 12 -1 12 C-0.67 8.04 -0.34 4.08 0 0 Z " fill="#4FAB46" transform="translate(287,329)"/>
<path d="M0 0 C1.98 0.495 1.98 0.495 4 1 C4.33 4.63 4.66 8.26 5 12 C3.02 12 1.04 12 -1 12 C-0.67 8.04 -0.34 4.08 0 0 Z " fill="#F3913B" transform="translate(215,329)"/>
<path d="M0 0 C0.66 0.33 1.32 0.66 2 1 C1.07544441 2.508013 0.1349253 4.00624917 -0.8125 5.5 C-1.33457031 6.3353125 -1.85664063 7.170625 -2.39453125 8.03125 C-2.92433594 8.6809375 -3.45414062 9.330625 -4 10 C-4.99 10 -5.98 10 -7 10 C-7.33 11.32 -7.66 12.64 -8 14 C-8.99 14 -9.98 14 -11 14 C-11 12.02 -11 10.04 -11 8 C-10.1646875 7.9071875 -10.1646875 7.9071875 -9.3125 7.8125 C-6.03587043 6.66125177 -4.33412994 4.51840336 -2 2 C-1.34 1.34 -0.68 0.68 0 0 Z " fill="#C0E2C2" transform="translate(298,313)"/>
<path d="M0 0 C0.99 0 1.98 0 3 0 C3 3.96 3 7.92 3 12 C2.01 11.67 1.02 11.34 0 11 C0 7.37 0 3.74 0 0 Z " fill="#F38C32" transform="translate(255,329)"/>
<path d="M0 0 C0.99 0 1.98 0 3 0 C3 3.96 3 7.92 3 12 C2.01 11.67 1.02 11.34 0 11 C0 7.37 0 3.74 0 0 Z " fill="#F38C32" transform="translate(207,329)"/>
<path d="M0 0 C0.66 0.33 1.32 0.66 2 1 C2.625 3.5625 2.625 3.5625 3 6 C1.02 6 -0.96 6 -3 6 C-3 7.65 -3 9.3 -3 11 C-4.32 10.67 -5.64 10.34 -7 10 C-6.34 10 -5.68 10 -5 10 C-4.7834375 8.824375 -4.7834375 8.824375 -4.5625 7.625 C-4 5 -4 5 -3 3 C-2.34 3 -1.68 3 -1 3 C-0.67 2.01 -0.34 1.02 0 0 Z " fill="#FAD2AF" transform="translate(172,330)"/>
<path d="M0 0 C1.32 0.33 2.64 0.66 4 1 C4.33 2.65 4.66 4.3 5 6 C3.35 6 1.7 6 0 6 C0 4.02 0 2.04 0 0 Z " fill="#F59F55" transform="translate(346,329)"/>
<path d="M0 0 C4.455 0.99 4.455 0.99 9 2 C8.01 2.495 8.01 2.495 7 3 C7 3.66 7 4.32 7 5 C2.545 4.01 2.545 4.01 -2 3 C-1.34 2.67 -0.68 2.34 0 2 C0 1.34 0 0.68 0 0 Z " fill="#EAF3DF" transform="translate(206,189)"/>
<path d="M0 0 C1.32 0 2.64 0 4 0 C4.33 1.98 4.66 3.96 5 6 C3.35 5.67 1.7 5.34 0 5 C0 3.35 0 1.7 0 0 Z " fill="#F3913C" transform="translate(311,335)"/>
<path d="M0 0 C2.97 0.495 2.97 0.495 6 1 C4.35 2.65 2.7 4.3 1 6 C0.67 4.02 0.34 2.04 0 0 Z " fill="#70BC49" transform="translate(243,187)"/>
<path d="M0 0 C0.66 0 1.32 0 2 0 C2 2.31 2 4.62 2 7 C1.01 7 0.02 7 -1 7 C-1.04254356 5.00045254 -1.04080783 2.99958364 -1 1 C-0.67 0.67 -0.34 0.34 0 0 Z " fill="#FDF2E8" transform="translate(344,329)"/>
<path d="M0 0 C2.31 0 4.62 0 7 0 C7 0.33 7 0.66 7 1 C5.35 1 3.7 1 2 1 C2 2.32 2 3.64 2 5 C1.01 4.67 0.02 4.34 -1 4 C-0.67 2.68 -0.34 1.36 0 0 Z " fill="#F6AA68" transform="translate(313,328)"/>
<path d="M0 0 C1.65 0.33 3.3 0.66 5 1 C4.67 2.32 4.34 3.64 4 5 C3.34 5 2.68 5 2 5 C1.67 4.01 1.34 3.02 1 2 C0.01 2.495 0.01 2.495 -1 3 C-0.67 2.01 -0.34 1.02 0 0 Z " fill="#F6AE6F" transform="translate(279,328)"/>
<path d="M0 0 C0.8125 1.6875 0.8125 1.6875 1 4 C-1.4375 6.75 -1.4375 6.75 -4 9 C-2.25 2.25 -2.25 2.25 0 0 Z " fill="#36A749" transform="translate(294,312)"/>
<path d="M0 0 C0.33 1.32 0.66 2.64 1 4 C-0.65 4.66 -2.3 5.32 -4 6 C-1.125 1.125 -1.125 1.125 0 0 Z " fill="#41AB4C" transform="translate(298,316)"/>
<path d="M0 0 C-1.33332095 3.99996286 -3.4957827 4.83782337 -7 7 C-7.66 6.67 -8.32 6.34 -9 6 C-7.8803014 4.99406757 -6.7540588 3.9954151 -5.625 3 C-4.68527344 2.1646875 -4.68527344 2.1646875 -3.7265625 1.3125 C-2 0 -2 0 0 0 Z " fill="#CDE7D9" transform="translate(210,281)"/>
</svg>
